<?xml version="1.0" standalone="no"?>
<!DOCTYPE svg PUBLIC "-//W3C//DTD SVG 20010904//EN"
 "http://www.w3.org/TR/2001/REC-SVG-20010904/DTD/svg10.dtd">
<svg version="1.0" xmlns="http://www.w3.org/2000/svg"
 width="990.000000pt" height="965.000000pt" viewBox="0 0 990.000000 965.000000"
 preserveAspectRatio="xMidYMid meet">

<g transform="translate(0.000000,965.000000) scale(0.100000,-0.100000)"
fill="#000000" stroke="none">
<path d="M4681 9639 c-230 -27 -452 -139 -618 -312 -93 -97 -139 -166 -198
-290 -54 -114 -82 -220 -97 -360 -30 -295 80 -611 291 -830 156 -163 357 -270
572 -307 91 -16 262 -16 349 -1 616 109 1001 739 824 1349 -49 168 -129 306
-254 436 -175 182 -388 288 -635 316 -101 11 -129 11 -234 -1z m89 -680 c7
-297 -2 -289 305 -289 l195 0 0 -257 c0 -147 -5 -274 -10 -295 -14 -48 -55
-97 -97 -114 -47 -20 -669 -20 -716 0 -42 17 -83 66 -97 114 -6 23 -10 202
-10 472 1 457 3 483 47 532 47 53 68 58 228 56 l150 -3 5 -216z m460 -199 c0
-6 -69 -10 -179 -10 -175 0 -180 1 -195 22 -13 18 -16 55 -16 194 0 94 3 174
8 178 8 8 382 -368 382 -384z"/>
<path d="M4572 8528 c-16 -16 -15 -43 2 -57 9 -8 80 -11 236 -9 200 3 224 5
234 21 8 12 8 22 0 35 -10 15 -34 17 -235 20 -166 2 -228 -1 -237 -10z"/>
<path d="M4572 8318 c-16 -16 -15 -43 2 -57 9 -8 82 -11 242 -9 l229 3 3 23
c7 50 -4 52 -242 52 -159 0 -225 -3 -234 -12z"/>
<path d="M4675 6835 c-64 -26 -125 -82 -125 -114 0 -26 23 -48 60 -56 16 -4
30 -8 30 -10 0 -2 -9 -19 -19 -37 -46 -80 -34 -179 31 -252 21 -25 48 -48 58
-51 18 -6 20 -16 20 -79 l0 -74 -52 -35 c-29 -20 -125 -66 -213 -102 -88 -37
-163 -70 -168 -74 -8 -8 -147 -743 -147 -781 0 -14 35 -196 78 -404 l78 -379
31 41 30 42 12 -43 c7 -23 25 -58 41 -78 24 -30 27 -42 23 -80 -9 -90 55 -795
93 -1027 l37 -221 -66 -71 c-40 -43 -64 -77 -60 -86 3 -8 0 -14 -6 -14 -6 0
-11 7 -11 16 0 12 -6 15 -22 10 -13 -3 -52 -14 -88 -23 -36 -9 -71 -20 -77
-26 -19 -14 -16 -47 12 -135 14 -44 39 -153 55 -243 35 -186 81 -302 145 -358
86 -75 116 -8 95 212 -11 114 -10 127 10 200 12 42 19 86 15 96 -3 10 -1 31 5
46 10 26 11 27 29 11 27 -24 37 -57 56 -171 27 -171 20 -157 73 -150 26 4 55
9 66 12 16 4 18 1 13 -28 -3 -19 -15 -65 -26 -104 -24 -79 -27 -143 -8 -168
14 -19 96 -37 167 -37 72 0 96 24 93 93 -1 29 -11 89 -23 133 -12 43 -24 97
-27 119 -3 22 -18 153 -33 290 l-29 250 21 30 c35 49 222 274 292 353 77 85
106 139 140 255 39 135 49 263 43 541 l-5 249 33 43 c48 62 69 124 62 181 -4
36 9 114 53 315 l58 266 -77 416 -76 417 -210 110 c-115 61 -218 118 -227 127
-11 11 -20 43 -26 87 -6 57 -4 79 11 119 30 80 57 207 57 267 0 94 -46 143
-165 173 -87 23 -169 20 -240 -9z m-195 -1681 l20 -191 -27 -78 c-16 -50 -28
-73 -33 -64 -4 8 -20 66 -35 130 l-28 116 27 109 c40 162 48 190 52 179 2 -5
13 -96 24 -201z m873 69 c25 -59 37 -233 23 -325 -7 -43 -15 -80 -17 -82 -3
-3 -16 36 -29 87 -23 86 -24 100 -16 225 4 72 12 132 16 132 4 0 14 -17 23
-37z m-359 -1449 c31 -116 56 -216 56 -221 0 -6 -34 -47 -75 -92 l-75 -81 0
37 c0 71 22 548 26 562 3 8 6 12 8 10 2 -2 29 -99 60 -215z"/>
<path d="M915 6739 c-230 -30 -447 -140 -612 -312 -93 -97 -139 -166 -198
-290 -186 -393 -111 -863 188 -1184 294 -316 759 -414 1157 -244 606 259 826
1020 455 1576 -60 90 -200 230 -288 289 -133 87 -294 146 -457 166 -96 11
-146 11 -245 -1z m387 -726 c43 -43 78 -86 78 -96 0 -27 -138 -167 -165 -167
-50 0 -59 49 -18 92 l28 29 -265 -3 c-261 -3 -265 -3 -299 -27 -42 -30 -70
-92 -71 -152 0 -54 -17 -74 -55 -65 -64 16 -35 184 46 265 67 68 83 71 383 71
l270 0 -32 33 c-33 34 -40 65 -20 85 23 23 43 12 120 -65z m279 -285 c16 -29
4 -128 -20 -177 -26 -51 -100 -114 -149 -129 -26 -8 -127 -12 -292 -12 l-252
0 26 -34 c37 -49 31 -96 -13 -96 -22 0 -171 151 -171 173 0 19 119 151 153
168 26 14 57 -6 57 -38 0 -16 -12 -39 -27 -55 l-28 -29 265 3 c261 3 265 3
299 27 41 30 70 92 71 152 0 25 5 50 12 57 19 19 56 14 69 -10z"/>
<path d="M8725 6739 c-148 -19 -314 -81 -442 -165 -88 -59 -228 -199 -288
-289 -293 -439 -228 -1018 155 -1379 414 -390 1070 -369 1457 47 298 320 373
792 188 1184 -59 124 -105 193 -198 290 -228 238 -548 353 -872 312z m279
-618 c81 -40 195 -142 203 -183 4 -20 11 -28 26 -28 12 0 43 -21 69 -47 67
-66 65 -83 -21 -166 -38 -37 -78 -67 -89 -67 -17 0 -122 99 -122 115 0 3 5 15
10 26 17 31 -12 24 -64 -16 -26 -19 -55 -35 -65 -35 -19 0 -101 81 -101 100 0
5 12 31 26 57 26 47 26 49 11 86 -21 49 -71 72 -139 63 -39 -6 -49 -4 -57 12
-15 28 18 74 70 101 65 33 154 26 243 -18z m-139 -362 c44 -39 68 -83 60 -111
-6 -18 -328 -378 -377 -420 -34 -30 -65 -22 -119 29 -63 59 -82 93 -70 126 5
13 101 110 213 215 226 213 230 216 293 161z"/>
<path d="M7455 2299 c-559 -76 -962 -592 -905 -1156 59 -581 551 -998 1122
-952 638 51 1083 684 924 1313 -63 246 -202 454 -406 607 -81 61 -241 136
-351 163 -112 29 -279 39 -384 25z m580 -596 c26 -25 16 -166 -18 -262 -47
-132 -151 -293 -225 -352 -21 -16 -30 -36 -39 -85 -20 -110 -74 -171 -189
-214 -69 -25 -96 -25 -119 0 -15 17 -17 30 -11 100 6 66 5 80 -7 80 -15 0
-117 103 -117 118 0 6 -31 8 -80 5 -101 -7 -115 1 -107 69 17 139 133 258 254
258 22 0 37 10 65 44 77 92 261 203 398 239 79 22 174 21 195 0z m-725 -639
c11 -13 10 -22 -7 -57 -11 -23 -18 -48 -16 -54 6 -18 34 -16 61 3 28 19 66 15
70 -9 11 -55 -36 -110 -106 -126 -148 -32 -168 -24 -157 68 8 76 23 121 49
150 37 40 84 52 106 25z"/>
<path d="M7678 1505 c-54 -30 -73 -107 -43 -165 32 -61 121 -79 174 -35 59 50
62 132 6 185 -30 29 -100 36 -137 15z m105 -76 c16 -23 17 -30 7 -50 -23 -43
-59 -52 -92 -22 -24 21 -23 58 3 84 26 26 57 21 82 -12z"/>
<path d="M2447 2119 c-427 -45 -781 -357 -899 -792 -19 -70 -22 -107 -23 -262
0 -165 3 -188 27 -275 162 -580 732 -907 1295 -744 349 101 622 386 720 751
24 88 27 116 27 268 0 153 -3 180 -27 270 -64 239 -217 461 -412 601 -80 57
-229 127 -325 153 -69 19 -237 42 -285 39 -11 0 -55 -4 -98 -9z m51 -485 l22
-15 0 -554 0 -554 -22 -15 c-34 -24 -123 -21 -148 4 -20 20 -20 33 -20 563 0
562 0 566 40 580 32 11 106 6 128 -9z m536 -200 c14 -14 16 -70 16 -469 l0
-454 -22 -15 c-34 -24 -123 -21 -148 4 -19 19 -20 33 -20 467 0 518 -7 483 96
483 44 0 67 -5 78 -16z m-260 -276 c14 -19 16 -68 16 -329 l0 -308 -26 -20
c-39 -31 -117 -29 -149 4 l-25 24 0 303 c0 363 -4 348 100 348 60 0 71 -3 84
-22z m-530 -230 c13 -18 16 -57 16 -214 l0 -193 -26 -20 c-39 -31 -117 -29
-149 4 -25 24 -25 26 -25 215 0 229 0 230 104 230 56 0 67 -3 80 -22z"/>
</g>
</svg>
